<svg width="38" height="32" viewBox="0 0 38 32" fill="none" xmlns="http://www.w3.org/2000/svg">
<g filter="url(#filter0_d_2623_8817)">
<path d="M29.6055 4.80469L32 2.50391V2H23.707L17.7969 16.7813L11.0742 2H2.37891V2.50391L5.17578 5.88672C5.44922 6.13672 5.58984 6.50391 5.55469 6.87109V20.1641C5.64062 20.6445 5.48828 21.1328 5.15234 21.4805L2 25.3203V25.8164H10.9297V25.3125L7.78125 21.4844C7.61256 21.3131 7.48567 21.1052 7.41047 20.8769C7.33526 20.6486 7.31377 20.406 7.34766 20.168V8.66797L15.1875 25.8242H16.0977L22.8398 8.66797V22.3359C22.8398 22.6953 22.8398 22.7695 22.6055 23.0078L20.1797 25.3633V25.8672H31.9453V25.3633L29.6055 23.0625C29.4023 22.9063 29.2969 22.6445 29.3398 22.3906V5.47656C29.3196 5.35104 29.3336 5.22238 29.3804 5.10414C29.4271 4.9859 29.5049 4.88245 29.6055 4.80469Z" fill="black"/>
</g>
<defs>
<filter id="filter0_d_2623_8817" x="0" y="0" width="38" height="31.8672" filterUnits="userSpaceOnUse" color-interpolation-filters="sRGB">
<feFlood flood-opacity="0" result="BackgroundImageFix"/>
<feColorMatrix in="SourceAlpha" type="matrix" values="0 0 0 0 0 0 0 0 0 0 0 0 0 0 0 0 0 0 127 0" result="hardAlpha"/>
<feOffset dx="2" dy="2"/>
<feGaussianBlur stdDeviation="2"/>
<feComposite in2="hardAlpha" operator="out"/>
<feColorMatrix type="matrix" values="0 0 0 0 0 0 0 0 0 0 0 0 0 0 0 0 0 0 0.3 0"/>
<feBlend mode="normal" in2="BackgroundImageFix" result="effect1_dropShadow_2623_8817"/>
<feBlend mode="normal" in="SourceGraphic" in2="effect1_dropShadow_2623_8817" result="shape"/>
</filter>
</defs>
</svg>
